<mxfile host="app.diagrams.net" modified="2022-10-31T13:03:04.365Z" agent="5.0 (Windows NT 10.0; Win64; x64) AppleWebKit/537.36 (KHTML, like Gecko) Chrome/107.0.0.0 Safari/537.36 Edg/107.0.1418.26" etag="CPSqu8FM2CfuLX90VPHa" version="20.5.1" type="github">
  <diagram id="kIiloCTDsGh0K1sFs4K_" name="第 1 页">
    <mxGraphModel dx="1550" dy="859" grid="1" gridSize="10" guides="1" tooltips="1" connect="1" arrows="1" fold="1" page="1" pageScale="1" pageWidth="827" pageHeight="1169" math="0" shadow="0">
      <root>
        <mxCell id="0" />
        <mxCell id="1" parent="0" />
        <mxCell id="Dp6Xj4nCXTUYKg4V99Aa-1" value="Client" style="html=1;fontStyle=1" vertex="1" parent="1">
          <mxGeometry x="255" y="101" width="110" height="50" as="geometry" />
        </mxCell>
        <mxCell id="Dp6Xj4nCXTUYKg4V99Aa-2" value="Abstraction" style="swimlane;fontStyle=1;align=center;verticalAlign=top;childLayout=stackLayout;horizontal=1;startSize=26;horizontalStack=0;resizeParent=1;resizeParentMax=0;resizeLast=0;collapsible=1;marginBottom=0;" vertex="1" parent="1">
          <mxGeometry x="230" y="231" width="160" height="112" as="geometry" />
        </mxCell>
        <mxCell id="Dp6Xj4nCXTUYKg4V99Aa-3" value="+ i: Implementation" style="text;strokeColor=none;fillColor=none;align=left;verticalAlign=top;spacingLeft=4;spacingRight=4;overflow=hidden;rotatable=0;points=[[0,0.5],[1,0.5]];portConstraint=eastwest;" vertex="1" parent="Dp6Xj4nCXTUYKg4V99Aa-2">
          <mxGeometry y="26" width="160" height="26" as="geometry" />
        </mxCell>
        <mxCell id="Dp6Xj4nCXTUYKg4V99Aa-4" value="" style="line;strokeWidth=1;fillColor=none;align=left;verticalAlign=middle;spacingTop=-1;spacingLeft=3;spacingRight=3;rotatable=0;labelPosition=right;points=[];portConstraint=eastwest;strokeColor=inherit;" vertex="1" parent="Dp6Xj4nCXTUYKg4V99Aa-2">
          <mxGeometry y="52" width="160" height="8" as="geometry" />
        </mxCell>
        <mxCell id="Dp6Xj4nCXTUYKg4V99Aa-5" value="+ function1()" style="text;strokeColor=none;fillColor=none;align=left;verticalAlign=top;spacingLeft=4;spacingRight=4;overflow=hidden;rotatable=0;points=[[0,0.5],[1,0.5]];portConstraint=eastwest;" vertex="1" parent="Dp6Xj4nCXTUYKg4V99Aa-2">
          <mxGeometry y="60" width="160" height="26" as="geometry" />
        </mxCell>
        <mxCell id="Dp6Xj4nCXTUYKg4V99Aa-15" value="+ function2()" style="text;strokeColor=none;fillColor=none;align=left;verticalAlign=top;spacingLeft=4;spacingRight=4;overflow=hidden;rotatable=0;points=[[0,0.5],[1,0.5]];portConstraint=eastwest;" vertex="1" parent="Dp6Xj4nCXTUYKg4V99Aa-2">
          <mxGeometry y="86" width="160" height="26" as="geometry" />
        </mxCell>
        <mxCell id="Dp6Xj4nCXTUYKg4V99Aa-6" value="&lt;p style=&quot;margin:0px;margin-top:4px;text-align:center;&quot;&gt;&lt;i&gt;&amp;lt;&amp;lt;Interface&amp;gt;&amp;gt;&lt;/i&gt;&lt;br&gt;&lt;b&gt;Implementation&lt;/b&gt;&lt;/p&gt;&lt;hr size=&quot;1&quot;&gt;&lt;p style=&quot;margin:0px;margin-left:4px;&quot;&gt;&lt;br&gt;&lt;/p&gt;&lt;hr size=&quot;1&quot;&gt;&lt;p style=&quot;margin:0px;margin-left:4px;&quot;&gt;+ operator1()&lt;br&gt;&lt;/p&gt;&lt;p style=&quot;margin: 0px 0px 0px 4px;&quot;&gt;+ operator2()&lt;/p&gt;&lt;p style=&quot;margin: 0px 0px 0px 4px;&quot;&gt;+ operator3()&lt;/p&gt;&lt;p style=&quot;margin: 0px 0px 0px 4px;&quot;&gt;+ operator4()&lt;/p&gt;" style="verticalAlign=top;align=left;overflow=fill;fontSize=12;fontFamily=Helvetica;html=1;" vertex="1" parent="1">
          <mxGeometry x="500" y="219" width="190" height="140" as="geometry" />
        </mxCell>
        <mxCell id="Dp6Xj4nCXTUYKg4V99Aa-7" value="ConcreteImplementation&#xa;&#xa;" style="swimlane;fontStyle=1;align=center;verticalAlign=top;childLayout=stackLayout;horizontal=1;startSize=26;horizontalStack=0;resizeParent=1;resizeParentMax=0;resizeLast=0;collapsible=1;marginBottom=0;" vertex="1" parent="1">
          <mxGeometry x="515" y="421" width="175" height="164" as="geometry" />
        </mxCell>
        <mxCell id="Dp6Xj4nCXTUYKg4V99Aa-8" value="...." style="text;strokeColor=none;fillColor=none;align=left;verticalAlign=top;spacingLeft=4;spacingRight=4;overflow=hidden;rotatable=0;points=[[0,0.5],[1,0.5]];portConstraint=eastwest;" vertex="1" parent="Dp6Xj4nCXTUYKg4V99Aa-7">
          <mxGeometry y="26" width="175" height="26" as="geometry" />
        </mxCell>
        <mxCell id="Dp6Xj4nCXTUYKg4V99Aa-9" value="" style="line;strokeWidth=1;fillColor=none;align=left;verticalAlign=middle;spacingTop=-1;spacingLeft=3;spacingRight=3;rotatable=0;labelPosition=right;points=[];portConstraint=eastwest;strokeColor=inherit;" vertex="1" parent="Dp6Xj4nCXTUYKg4V99Aa-7">
          <mxGeometry y="52" width="175" height="8" as="geometry" />
        </mxCell>
        <mxCell id="Dp6Xj4nCXTUYKg4V99Aa-10" value="+ operator1()" style="text;strokeColor=none;fillColor=none;align=left;verticalAlign=top;spacingLeft=4;spacingRight=4;overflow=hidden;rotatable=0;points=[[0,0.5],[1,0.5]];portConstraint=eastwest;" vertex="1" parent="Dp6Xj4nCXTUYKg4V99Aa-7">
          <mxGeometry y="60" width="175" height="26" as="geometry" />
        </mxCell>
        <mxCell id="Dp6Xj4nCXTUYKg4V99Aa-13" value="+ operator2()" style="text;strokeColor=none;fillColor=none;align=left;verticalAlign=top;spacingLeft=4;spacingRight=4;overflow=hidden;rotatable=0;points=[[0,0.5],[1,0.5]];portConstraint=eastwest;" vertex="1" parent="Dp6Xj4nCXTUYKg4V99Aa-7">
          <mxGeometry y="86" width="175" height="26" as="geometry" />
        </mxCell>
        <mxCell id="Dp6Xj4nCXTUYKg4V99Aa-14" value="+ operator3()" style="text;strokeColor=none;fillColor=none;align=left;verticalAlign=top;spacingLeft=4;spacingRight=4;overflow=hidden;rotatable=0;points=[[0,0.5],[1,0.5]];portConstraint=eastwest;" vertex="1" parent="Dp6Xj4nCXTUYKg4V99Aa-7">
          <mxGeometry y="112" width="175" height="26" as="geometry" />
        </mxCell>
        <mxCell id="Dp6Xj4nCXTUYKg4V99Aa-12" value="+ operator4()" style="text;strokeColor=none;fillColor=none;align=left;verticalAlign=top;spacingLeft=4;spacingRight=4;overflow=hidden;rotatable=0;points=[[0,0.5],[1,0.5]];portConstraint=eastwest;" vertex="1" parent="Dp6Xj4nCXTUYKg4V99Aa-7">
          <mxGeometry y="138" width="175" height="26" as="geometry" />
        </mxCell>
        <mxCell id="Dp6Xj4nCXTUYKg4V99Aa-11" value="" style="endArrow=block;dashed=1;endFill=0;endSize=12;html=1;rounded=0;entryX=0.5;entryY=1;entryDx=0;entryDy=0;" edge="1" parent="1" target="Dp6Xj4nCXTUYKg4V99Aa-6">
          <mxGeometry width="160" relative="1" as="geometry">
            <mxPoint x="595" y="420" as="sourcePoint" />
            <mxPoint x="770" y="381" as="targetPoint" />
          </mxGeometry>
        </mxCell>
        <mxCell id="Dp6Xj4nCXTUYKg4V99Aa-16" value="" style="endArrow=open;endFill=1;endSize=12;html=1;rounded=0;" edge="1" parent="1">
          <mxGeometry width="160" relative="1" as="geometry">
            <mxPoint x="390" y="291" as="sourcePoint" />
            <mxPoint x="500" y="291" as="targetPoint" />
          </mxGeometry>
        </mxCell>
        <mxCell id="Dp6Xj4nCXTUYKg4V99Aa-17" value="" style="endArrow=open;endFill=1;endSize=12;html=1;rounded=0;exitX=0.5;exitY=1;exitDx=0;exitDy=0;entryX=0.5;entryY=0;entryDx=0;entryDy=0;" edge="1" parent="1" source="Dp6Xj4nCXTUYKg4V99Aa-1" target="Dp6Xj4nCXTUYKg4V99Aa-2">
          <mxGeometry width="160" relative="1" as="geometry">
            <mxPoint x="270" y="191" as="sourcePoint" />
            <mxPoint x="430" y="191" as="targetPoint" />
          </mxGeometry>
        </mxCell>
        <mxCell id="Dp6Xj4nCXTUYKg4V99Aa-18" value="" style="endArrow=none;dashed=1;html=1;dashPattern=1 3;strokeWidth=2;rounded=0;entryX=0;entryY=0.5;entryDx=0;entryDy=0;" edge="1" parent="1" target="Dp6Xj4nCXTUYKg4V99Aa-5">
          <mxGeometry width="50" height="50" relative="1" as="geometry">
            <mxPoint x="180" y="304" as="sourcePoint" />
            <mxPoint x="190" y="230" as="targetPoint" />
          </mxGeometry>
        </mxCell>
        <mxCell id="Dp6Xj4nCXTUYKg4V99Aa-19" value="i.operator1();&lt;br&gt;i.operator2();" style="shape=note;whiteSpace=wrap;html=1;backgroundOutline=1;darkOpacity=0.05;align=left;fillColor=#6d8764;fontColor=#ffffff;strokeColor=#3A5431;" vertex="1" parent="1">
          <mxGeometry x="50" y="270" width="130" height="47" as="geometry" />
        </mxCell>
        <mxCell id="Dp6Xj4nCXTUYKg4V99Aa-20" value="i.operator1();&lt;br&gt;i.operator3();&lt;br&gt;i.operator4();" style="shape=note;whiteSpace=wrap;html=1;backgroundOutline=1;darkOpacity=0.05;align=left;fillColor=#6d8764;fontColor=#ffffff;strokeColor=#3A5431;" vertex="1" parent="1">
          <mxGeometry x="212" y="406" width="150" height="60" as="geometry" />
        </mxCell>
        <mxCell id="Dp6Xj4nCXTUYKg4V99Aa-21" value="" style="endArrow=none;dashed=1;html=1;dashPattern=1 3;strokeWidth=2;rounded=0;exitX=0;exitY=0;exitDx=60;exitDy=0;exitPerimeter=0;entryX=0.26;entryY=0.969;entryDx=0;entryDy=0;entryPerimeter=0;" edge="1" parent="1" source="Dp6Xj4nCXTUYKg4V99Aa-20" target="Dp6Xj4nCXTUYKg4V99Aa-15">
          <mxGeometry width="50" height="50" relative="1" as="geometry">
            <mxPoint x="270" y="410" as="sourcePoint" />
            <mxPoint x="320" y="360" as="targetPoint" />
          </mxGeometry>
        </mxCell>
        <mxCell id="Dp6Xj4nCXTUYKg4V99Aa-22" value="桥接模式是将抽象和实现进行分离（比如：电视和遥控器，电视是具体的实现以及执行者，而遥控器是对逻辑进行的抽象），客户端只和抽象进行交互，这样扩展和替换具体实现就不会对客户端代码有所影响" style="shape=note;whiteSpace=wrap;html=1;backgroundOutline=1;darkOpacity=0.05;align=left;" vertex="1" parent="1">
          <mxGeometry x="130" y="20" width="590" height="70" as="geometry" />
        </mxCell>
        <mxCell id="Dp6Xj4nCXTUYKg4V99Aa-23" value="" style="rounded=1;whiteSpace=wrap;html=1;fillColor=none;dashed=1;align=left;" vertex="1" parent="1">
          <mxGeometry x="200" y="194" width="510" height="190" as="geometry" />
        </mxCell>
        <mxCell id="Dp6Xj4nCXTUYKg4V99Aa-24" value="&lt;font color=&quot;#cc0000&quot; style=&quot;font-size: 18px;&quot;&gt;桥接&lt;/font&gt;" style="text;html=1;align=center;verticalAlign=middle;resizable=0;points=[];autosize=1;strokeColor=none;fillColor=none;fontStyle=1;fontSize=18;" vertex="1" parent="1">
          <mxGeometry x="640" y="160" width="60" height="40" as="geometry" />
        </mxCell>
      </root>
    </mxGraphModel>
  </diagram>
</mxfile>
